<svg xmlns="http://www.w3.org/2000/svg" viewBox="0 0 112 140" role="img" aria-label="Angry Dario raging">
  <rect x="34" y="104" width="14" height="22" rx="5" fill="#2b2b2e"/>
  <rect x="64" y="104" width="14" height="22" rx="5" fill="#2b2b2e"/>
  <rect x="28" y="121" width="24" height="12" rx="6" fill="#1c1c1e"/>
  <rect x="60" y="121" width="24" height="12" rx="6" fill="#1c1c1e"/>
  <rect x="5" y="50" width="15" height="32" rx="7.5" fill="#c0261a" transform="rotate(-12 12.5 50)"/>
  <circle cx="10" cy="84" r="7" fill="#9c1f13"/>
  <rect x="92" y="50" width="15" height="32" rx="7.5" fill="#c0261a" transform="rotate(12 99.5 50)"/>
  <circle cx="102" cy="84" r="7" fill="#9c1f13"/>
  <rect x="16" y="32" width="80" height="78" rx="20" fill="#e8391c"/>
  <circle cx="42" cy="63" r="12" fill="#fff3c4" stroke="#2b2b2e" stroke-width="2"/>
  <circle cx="70" cy="63" r="12" fill="#fff3c4" stroke="#2b2b2e" stroke-width="2"/>
  <circle cx="45" cy="66" r="5.5" fill="#1c1c1e"/>
  <circle cx="67" cy="66" r="5.5" fill="#1c1c1e"/>
  <path d="M24 52 L54 64" fill="none" stroke="#1c1c1e" stroke-width="7" stroke-linecap="round"/>
  <path d="M88 52 L58 64" fill="none" stroke="#1c1c1e" stroke-width="7" stroke-linecap="round"/>
  <path d="M40 88 h32 v10 h-32 z" fill="#3a0d0a"/>
  <path d="M43 88 l3 6 3 -6 M55 88 l3 6 3 -6 M67 88 l-3 6 -3 -6" fill="none" stroke="#fdf6ec" stroke-width="2"/>
  <g stroke="#7a1d13" stroke-width="2.4" stroke-linecap="round"><path d="M78 30 l8 8 M86 30 l-8 8"/></g>
</svg>
