<svg xmlns="http://www.w3.org/2000/svg" viewBox="0 0 112 140" role="img" aria-label="Angry Dario idle">
  <rect x="34" y="104" width="14" height="22" rx="5" fill="#2b2b2e"/>
  <rect x="64" y="104" width="14" height="22" rx="5" fill="#2b2b2e"/>
  <rect x="28" y="121" width="24" height="12" rx="6" fill="#1c1c1e"/>
  <rect x="60" y="121" width="24" height="12" rx="6" fill="#1c1c1e"/>
  <rect x="6" y="54" width="15" height="32" rx="7.5" fill="#c22f24"/>
  <circle cx="13.5" cy="88" r="7" fill="#a52619"/>
  <rect x="91" y="54" width="15" height="32" rx="7.5" fill="#c22f24"/>
  <circle cx="98.5" cy="88" r="7" fill="#a52619"/>
  <rect x="16" y="32" width="80" height="78" rx="20" fill="#d8352a"/>
  <rect x="24" y="72" width="64" height="32" rx="15" fill="#e8635a" opacity="0.35"/>
  <circle cx="42" cy="62" r="13" fill="#fdf6ec" stroke="#2b2b2e" stroke-width="2"/>
  <circle cx="70" cy="62" r="13" fill="#fdf6ec" stroke="#2b2b2e" stroke-width="2"/>
  <circle cx="44" cy="65" r="5" fill="#1c1c1e"/>
  <circle cx="68" cy="65" r="5" fill="#1c1c1e"/>
  <path d="M26 50 L52 60" fill="none" stroke="#2b2b2e" stroke-width="6" stroke-linecap="round"/>
  <path d="M86 50 L60 60" fill="none" stroke="#2b2b2e" stroke-width="6" stroke-linecap="round"/>
  <path d="M40 92 Q56 100 72 92" fill="none" stroke="#7a1d13" stroke-width="5" stroke-linecap="round"/>
</svg>
