<svg xmlns="http://www.w3.org/2000/svg" viewBox="0 0 112 140" role="img" aria-label="Angry Dario panicking">
  <rect x="36" y="104" width="14" height="22" rx="5" fill="#2b2b2e" transform="rotate(-12 43 104)"/>
  <rect x="62" y="104" width="14" height="22" rx="5" fill="#2b2b2e" transform="rotate(12 69 104)"/>
  <rect x="26" y="123" width="24" height="12" rx="6" fill="#1c1c1e"/>
  <rect x="62" y="123" width="24" height="12" rx="6" fill="#1c1c1e"/>
  <g transform="rotate(-145 13.5 56)"><rect x="6" y="54" width="15" height="30" rx="7.5" fill="#c22f24"/><circle cx="13.5" cy="86" r="7" fill="#a52619"/></g>
  <g transform="rotate(145 98.5 56)"><rect x="91" y="54" width="15" height="30" rx="7.5" fill="#c22f24"/><circle cx="98.5" cy="86" r="7" fill="#a52619"/></g>
  <rect x="16" y="32" width="80" height="78" rx="20" fill="#d8352a"/>
  <circle cx="42" cy="60" r="15" fill="#fdf6ec" stroke="#2b2b2e" stroke-width="2"/>
  <circle cx="70" cy="60" r="15" fill="#fdf6ec" stroke="#2b2b2e" stroke-width="2"/>
  <circle cx="42" cy="56" r="3.4" fill="#1c1c1e"/>
  <circle cx="70" cy="56" r="3.4" fill="#1c1c1e"/>
  <path d="M30 44 Q38 40 46 44" fill="none" stroke="#2b2b2e" stroke-width="4" stroke-linecap="round"/>
  <path d="M66 44 Q74 40 82 44" fill="none" stroke="#2b2b2e" stroke-width="4" stroke-linecap="round"/>
  <ellipse cx="56" cy="94" rx="8" ry="10" fill="#3a0d0a"/>
  <path d="M92 40 q6 6 0 12 q-6 -6 0 -12 z" fill="#8fd3ec" stroke="#5aa9c4" stroke-width="1"/>
</svg>
