<?xml version="1.0" encoding="UTF-8"?>
<svg version="1.1" xmlns="http://www.w3.org/2000/svg" width="500" height="500">
<path d="M0 0 C1.93344572 1.20708771 3.7603911 2.48656207 5.58984375 3.84375 C6.24984375 4.17375 6.90984375 4.50375 7.58984375 4.84375 C9.3793141 3.90916872 9.3793141 3.90916872 11.27734375 2.53125 C18.61561703 -2.18996883 25.11505283 -2.86870775 33.58984375 -1.15625 C39.77040278 1.07754755 43.82627895 5.49297688 46.83984375 11.21875 C49.08797148 19.08719707 48.77609192 27.30445559 48.77514648 35.41723633 C48.77734954 37.53682058 48.79560557 39.65589691 48.81445312 41.77539062 C48.81738497 43.13541491 48.81937116 44.49544163 48.8203125 45.85546875 C48.82442139 47.07709717 48.82853027 48.29872559 48.83276367 49.55737305 C48.59640534 52.75498054 47.96277606 54.96967247 46.58984375 57.84375 C43.21484375 58.03125 43.21484375 58.03125 39.58984375 57.84375 C37.20777543 54.27064752 37.30084796 52.55274002 37.2109375 48.3046875 C37.17677734 47.00144531 37.14261719 45.69820313 37.10742188 44.35546875 C37.08014452 42.97657394 37.05345592 41.59766737 37.02734375 40.21875 C37.84532879 24.33565281 37.84532879 24.33565281 31.58984375 10.84375 C28.14060055 9.1191284 24.36852944 9.47764896 20.58984375 9.84375 C17.77756208 11.04046561 16.23482692 11.91673066 14.49609375 14.41577148 C13.15167491 18.01766948 13.15615213 21.64062728 13.02734375 25.44140625 C12.9905249 26.27208115 12.95370605 27.10275604 12.91577148 27.95860291 C12.75876991 31.50582605 12.62288926 35.05378392 12.48535156 38.60180664 C12.38182231 41.19454955 12.26737534 43.78665235 12.15234375 46.37890625 C12.12519287 47.18207779 12.09804199 47.98524933 12.07006836 48.8127594 C11.89960892 52.62445317 11.75072928 54.6024217 9.58984375 57.84375 C6.58984375 58.15625 6.58984375 58.15625 3.58984375 57.84375 C-2.32258457 51.93132168 0.27437075 35.68410547 0.16015625 27.8359375 C0.12921875 26.63710937 0.09828125 25.43828125 0.06640625 24.203125 C0.03667725 22.58615723 0.03667725 22.58615723 0.00634766 20.93652344 C-0.47709019 17.34672823 -1.53387038 14.93091727 -3.41015625 11.84375 C-7.45447495 9.14753753 -10.66350279 9.30055902 -15.41015625 9.84375 C-19.16885356 11.47796622 -21.28678476 13.36367698 -23.41015625 16.84375 C-23.89755673 19.86895294 -23.89755673 19.86895294 -23.88671875 23.2265625 C-23.91765625 24.47695312 -23.94859375 25.72734375 -23.98046875 27.015625 C-23.99851562 28.32015625 -24.0165625 29.6246875 -24.03515625 30.96875 C-24.51770245 54.9512962 -24.51770245 54.9512962 -27.41015625 57.84375 C-30.97265625 57.59375 -30.97265625 57.59375 -34.41015625 56.84375 C-35.66510124 54.33386003 -35.5438835 52.60781727 -35.55541992 49.79907227 C-35.56179977 48.74780655 -35.56817963 47.69654083 -35.57475281 46.61341858 C-35.57586563 45.47384201 -35.57697845 44.33426544 -35.578125 43.16015625 C-35.5814534 41.99371078 -35.5847818 40.82726532 -35.58821106 39.62547302 C-35.59328109 37.15486038 -35.59561936 34.68424088 -35.59545898 32.21362305 C-35.59764514 28.42550421 -35.61579943 24.63767662 -35.63476562 20.84960938 C-35.63769953 18.453126 -35.63968435 16.05664124 -35.640625 13.66015625 C-35.64781052 12.52260391 -35.65499603 11.38505157 -35.66239929 10.21302795 C-35.65932266 9.15861008 -35.65624603 8.1041922 -35.65307617 7.01782227 C-35.6552137 5.62455467 -35.6552137 5.62455467 -35.65739441 4.20314026 C-35.41015625 1.84375 -35.41015625 1.84375 -33.41015625 -1.15625 C-26.64024475 -0.22704646 -26.64024475 -0.22704646 -23.97265625 0.59375 C-21.15590363 1.07131 -21.15590363 1.07131 -17.78515625 -0.65625 C-11.92993671 -3.04252815 -5.70798608 -2.73835313 0 0 Z " fill="#A0E7F4" transform="translate(349.41015625,212.15625)"/>
<path d="M0 0 C2.75 -0.375 2.75 -0.375 6 0 C10.0504554 4.58051849 12.10040605 10.46789419 14.44921875 16.05859375 C14.8661348 17.03876968 15.28305084 18.01894562 15.71260071 19.02882385 C16.59541411 21.10790555 17.47524709 23.18825497 18.35229492 25.26977539 C19.65948323 28.37103125 20.97631279 31.46803883 22.29492188 34.56445312 C24.89794961 40.6954302 27.46255498 46.84160198 30 53 C30.43862366 54.06438293 30.87724731 55.12876587 31.3291626 56.22540283 C32.61460018 59.36500472 33.8826982 62.51100284 35.14453125 65.66015625 C35.53396408 66.61184189 35.92339691 67.56352753 36.32463074 68.54405212 C39.71973949 77.12507334 39.71973949 77.12507334 39 82 C37 84 37 84 34.625 84.4375 C32 84 32 84 28 79 C26.02 75.04 24.04 71.08 22 67 C9.46 67 -3.08 67 -16 67 C-18.31 71.62 -20.62 76.24 -23 81 C-26 84 -26 84 -28.5625 84.3125 C-31 84 -31 84 -33 82 C-32.81707943 74.79126651 -30.15126835 68.7615354 -27.375 62.1875 C-26.89716064 61.03693115 -26.41932129 59.8863623 -25.92700195 58.70092773 C-24.59312152 55.49576519 -23.24378421 52.29733307 -21.8895874 49.10070801 C-20.96028913 46.90622512 -20.03395449 44.71050626 -19.10791016 42.51464844 C-17.14324116 37.86017356 -15.16712334 33.2106309 -13.1875 28.5625 C-12.87375427 27.82373627 -12.56000854 27.08497253 -12.23675537 26.32382202 C-8.436922 17.39126654 -4.4727576 8.62095435 0 0 Z M2 21 C0.19445521 24.97300982 -1.59185225 28.95439372 -3.375 32.9375 C-3.88289063 34.05447266 -4.39078125 35.17144531 -4.9140625 36.32226562 C-7.68080456 42.52923301 -9.82081292 48.30136496 -11 55 C-7.8815675 56.0394775 -5.72524414 56.11494838 -2.45703125 56.09765625 C-0.84731445 56.09282227 -0.84731445 56.09282227 0.79492188 56.08789062 C1.91447266 56.07951172 3.03402344 56.07113281 4.1875 56.0625 C5.31865234 56.05798828 6.44980469 56.05347656 7.61523438 56.04882812 C10.41020927 56.03703498 13.2050782 56.0205765 16 56 C17.46114371 51.34493197 16.41061303 48.63516097 14.578125 44.203125 C14.31747253 43.56888611 14.05682007 42.93464722 13.78826904 42.28118896 C13.23630467 40.94734016 12.67783465 39.6161671 12.11328125 38.28759766 C11.24984774 36.24964062 10.41280504 34.20221973 9.578125 32.15234375 C9.03799842 30.85612801 8.49638258 29.56053162 7.953125 28.265625 C7.45973633 27.08774414 6.96634766 25.90986328 6.45800781 24.69628906 C5.23396545 21.69794672 5.23396545 21.69794672 2 21 Z " fill="#9EE7F4" transform="translate(84,186)"/>
<path d="M0 0 C6.69144759 3.86394732 11.8727785 8.92061251 14.82836914 16.16772461 C16.28068349 21.72842962 16.03447435 27.59720244 16.125 33.3125 C16.15653571 34.73479923 16.18885262 36.15708135 16.22192383 37.5793457 C16.30069069 41.18802905 16.35886628 44.79668802 16.40820312 48.40588379 C16.43641804 50.42266236 16.4700541 52.43936286 16.50390625 54.45605469 C16.55972728 58.03325215 16.59749448 61.60998282 16.625 65.1875 C16.63813232 66.26040283 16.65126465 67.33330566 16.66479492 68.4387207 C16.66584229 69.43218506 16.66688965 70.42564941 16.66796875 71.44921875 C16.67207764 72.30862061 16.67618652 73.16802246 16.68041992 74.0534668 C16.40535017 76.82379243 15.57781289 78.97278192 14.4375 81.5 C11.0625 81.625 11.0625 81.625 7.4375 81.5 C4.64572431 78.70822431 5.12536516 76.86816428 5.0234375 72.9609375 C4.96542969 71.00800781 4.96542969 71.00800781 4.90625 69.015625 C4.87479237 67.63542138 4.84354509 66.25521296 4.8125 64.875 C4.77432066 63.48695459 4.73526895 62.09893289 4.6953125 60.7109375 C4.60077057 57.30742815 4.51522103 53.90392835 4.4375 50.5 C3.63143311 50.92152344 2.82536621 51.34304688 1.99487305 51.77734375 C0.92793213 52.32519531 -0.13900879 52.87304688 -1.23828125 53.4375 C-2.29184814 53.98277344 -3.34541504 54.52804687 -4.4309082 55.08984375 C-10.91785096 58.01091503 -17.48557879 58.15493677 -24.328125 56.359375 C-33.31680538 52.90219024 -38.54811171 46.87954616 -42.73046875 38.46484375 C-46.15250499 30.38369714 -45.09523558 22.08000627 -41.88671875 14.109375 C-33.96159671 -1.50708968 -15.7584378 -7.36058677 0 0 Z M-29.3125 14.4375 C-33.60244445 20.27659106 -34.44882731 25.34206552 -33.5625 32.5 C-31.69398789 38.20623458 -27.40950391 42.16237011 -22.5625 45.5 C-17.54448127 48.00900937 -12.91171335 47.81806156 -7.5625 46.5 C-2.34246359 43.78959648 1.78460613 39.80578773 4.4375 34.5 C4.61353147 32.08750308 4.70494968 29.66849105 4.75 27.25 C4.78738281 25.94546875 4.82476562 24.6409375 4.86328125 23.296875 C4.29891867 18.26421052 2.31941502 15.43713013 -1.16015625 11.85546875 C-10.45000755 4.44836064 -21.52553215 5.75289897 -29.3125 14.4375 Z " fill="#9AE6F3" transform="translate(206.5625,213.5)"/>
<path d="M0 0 C2.44800701 1.19092233 4.66409918 2.48743209 6.9140625 4.015625 C8.2753125 4.8509375 8.2753125 4.8509375 9.6640625 5.703125 C20.45967719 16.79861788 20.18220823 30.96467002 20.0078125 45.5703125 C19.63499273 55.29469477 19.63499273 55.29469477 16.9140625 58.015625 C14.0390625 58.515625 14.0390625 58.515625 10.9140625 58.015625 C8.5390625 55.015625 8.5390625 55.015625 6.9140625 52.015625 C6.24761719 52.43714844 5.58117187 52.85867188 4.89453125 53.29296875 C-3.49163347 58.27775197 -10.64719186 60.39648398 -20.2734375 57.953125 C-29.06460841 54.84626111 -34.81695985 49.24464113 -39.0859375 41.015625 C-42.22164988 33.14619297 -41.9428159 24.93028554 -38.98828125 17.07421875 C-35.70260793 9.578332 -30.04542874 4.04261992 -22.8125 0.33984375 C-15.69839587 -2.18812407 -7.22468252 -2.30458227 0 0 Z M-25.8984375 16.015625 C-30.12748277 20.94484333 -30.37586127 24.96122024 -30.30078125 31.29296875 C-29.81260864 37.47944715 -26.53777418 40.99811385 -22.0859375 45.015625 C-21.51488281 45.54929687 -20.94382812 46.08296875 -20.35546875 46.6328125 C-15.59503838 49.53331569 -9.45111769 48.57709735 -4.0859375 48.015625 C1.11809367 45.59305877 4.56762147 41.90223958 7 36.6875 C9.00633592 30.82282578 8.86830668 24.30421535 6.2890625 18.640625 C3.59652113 13.97419209 0.08805851 10.74029034 -5.0859375 9.015625 C-14.10018345 8.27976819 -19.66120392 9.1609683 -25.8984375 16.015625 Z " fill="#9EE7F3" transform="translate(279.0859375,211.984375)"/>
<path d="M0 0 C7.06210218 4.22539223 12.99331374 9.92941235 15.4375 17.9375 C17.82505965 30.54381494 18.82368894 43.45092828 15.4375 55.9375 C11.9725 56.4325 11.9725 56.4325 8.4375 56.9375 C7.1175 54.9575 5.7975 52.9775 4.4375 50.9375 C3.68726563 51.35902344 2.93703125 51.78054688 2.1640625 52.21484375 C-6.56996447 56.88985819 -13.24631813 59.05877822 -23.0625 57.0625 C-30.26587431 54.82485607 -35.89057679 49.96659055 -40.0390625 43.7109375 C-44.17100727 35.77403639 -44.98234268 26.81159199 -42.87890625 18.109375 C-39.8905503 10.02469416 -35.10888237 4.18234008 -27.5625 -0.0625 C-19.20124168 -3.39733713 -8.28531539 -3.86902593 0 0 Z M-30 16.0625 C-33.16217691 21.88090552 -33.28026439 27.43636965 -32.5625 33.9375 C-30.42414303 39.80599536 -26.15838504 44.22116414 -20.5625 46.9375 C-14.11466382 48.62873572 -8.57829059 47.88503619 -2.5625 44.9375 C2.3432005 40.93016852 5.01348378 36.13911522 5.65234375 29.80859375 C5.92832736 23.28434124 4.23567845 18.66577074 0.625 13.1875 C-3.63395418 8.80686141 -7.44022672 7.71696991 -13.4375 7.4375 C-21.02624969 7.64463709 -25.37924727 10.13845804 -30 16.0625 Z " fill="#9FE7F4" transform="translate(455.5625,213.0625)"/>
<path d="M0 0 C3 0.25 3 0.25 5 2.25 C5.27174377 4.17819214 5.27174377 4.17819214 5.30297852 6.56591797 C5.31962051 7.46220917 5.33626251 8.35850037 5.35340881 9.2819519 C5.36182297 10.25882965 5.37023712 11.2357074 5.37890625 12.2421875 C5.39590073 13.25733429 5.4128952 14.27248108 5.43040466 15.31838989 C5.48365134 18.58719533 5.52373803 21.85599339 5.5625 25.125 C5.66474622 32.49008031 5.7844832 39.8544825 5.94073486 47.21862793 C5.98006412 49.23029334 6.01183257 51.24212158 6.03582764 53.25402832 C6.07206122 56.0480401 6.13944608 58.8396213 6.21484375 61.6328125 C6.22095421 62.88056961 6.22095421 62.88056961 6.22718811 64.15353394 C6.26153831 66.72690609 6.26153831 66.72690609 7 70.25 C9.26033658 72.32953804 9.26033658 72.32953804 12 73.25 C12.9075 73.62125 13.815 73.9925 14.75 74.375 C15.4925 74.66375 16.235 74.9525 17 75.25 C17.495 75.745 17.495 75.745 18 76.25 C17.6875 79.75 17.6875 79.75 17 83.25 C13.51866175 84.99066912 9.8063367 84.69364397 6 84.25 C0.51165192 81.71691627 -2.81271978 77.81447939 -5 72.25 C-5.70531534 66.90609887 -5.63229391 61.60279345 -5.55859375 56.2265625 C-5.5543381 54.67337441 -5.55201445 53.12017993 -5.55152893 51.56698608 C-5.54538957 48.32740035 -5.52280594 45.08851318 -5.48706055 41.84912109 C-5.44156238 37.69273566 -5.42702118 33.53697687 -5.42332363 29.38036537 C-5.41890309 26.18050951 -5.40361731 22.98078553 -5.3844471 19.78098679 C-5.37556138 18.24755308 -5.36883308 16.71410533 -5.36428642 15.18065262 C-5.35527161 13.04548489 -5.3329125 10.91089177 -5.30639648 8.77587891 C-5.29575668 7.56090729 -5.28511688 6.34593567 -5.27415466 5.09414673 C-4.8854469 1.06159843 -4.02071415 0.33505951 0 0 Z " fill="#9FE8F4" transform="translate(137,185.75)"/>
<path d="M0 0 C5.95032662 4.27226195 10.67865792 9.62688049 12.5625 16.83984375 C13.07986739 21.76957762 13.17155615 26.69982535 13.25 31.65234375 C13.28153571 33.07464298 13.31385262 34.4969251 13.34692383 35.91918945 C13.42569069 39.5278728 13.48386628 43.13653177 13.53320312 46.74572754 C13.56141804 48.76250611 13.5950541 50.77920661 13.62890625 52.79589844 C13.68472728 56.3730959 13.72249448 59.94982657 13.75 63.52734375 C13.76313232 64.60024658 13.77626465 65.67314941 13.78979492 66.77856445 C13.79084229 67.77202881 13.79188965 68.76549316 13.79296875 69.7890625 C13.79707764 70.64846436 13.80118652 71.50786621 13.80541992 72.39331055 C13.53035017 75.16363618 12.70281289 77.31262567 11.5625 79.83984375 C8.1875 79.96484375 8.1875 79.96484375 4.5625 79.83984375 C2.5625 77.83984375 2.5625 77.83984375 2.33544922 74.95068359 C2.34592285 73.74621582 2.35639648 72.54174805 2.3671875 71.30078125 C2.37363281 69.99882812 2.38007813 68.696875 2.38671875 67.35546875 C2.40343071 65.9752578 2.42036061 64.59504946 2.4375 63.21484375 C2.44752994 61.82682923 2.45665577 60.43880786 2.46484375 59.05078125 C2.48848137 55.64696349 2.52143133 52.24348869 2.5625 48.83984375 C2.8925 48.83984375 3.2225 48.83984375 3.5625 48.83984375 C3.58755615 49.68281006 3.6126123 50.52577637 3.63842773 51.39428711 C3.73338155 54.51226049 3.83262448 57.63005878 3.93481445 60.74780273 C3.97821223 62.09898522 4.0198837 63.45022428 4.05981445 64.80151367 C4.11739952 66.74021076 4.18164298 68.67870651 4.24609375 70.6171875 C4.30108032 72.36890259 4.30108032 72.36890259 4.35717773 74.15600586 C4.26326188 76.7576417 4.26326188 76.7576417 5.5625 77.83984375 C7.22867115 77.88048207 8.89638095 77.88256475 10.5625 77.83984375 C10.6088992 70.23358418 10.64440771 62.62733933 10.66612434 55.02097034 C10.67654876 51.48878279 10.6906833 47.95669227 10.71337891 44.42456055 C10.73932394 40.36115604 10.74898387 36.29785301 10.7578125 32.234375 C10.77329636 30.33725517 10.77329636 30.33725517 10.78909302 28.40180969 C10.78924408 27.22096298 10.78939514 26.04011627 10.78955078 24.82348633 C10.79621262 23.26794792 10.79621262 23.26794792 10.80300903 21.6809845 C10.55155329 18.71052991 9.81062854 16.5315906 8.5625 13.83984375 C6.47071606 14.79805439 6.47071606 14.79805439 4.5625 16.83984375 C3.94649845 19.66124708 3.55147773 22.17703646 3.3125 25.02734375 C3.23515625 25.77693359 3.1578125 26.52652344 3.078125 27.29882812 C2.89005605 29.14425472 2.72411424 30.99191245 2.5625 32.83984375 C2.2325 32.83984375 1.9025 32.83984375 1.5625 32.83984375 C1.53671875 31.82664063 1.5109375 30.8134375 1.484375 29.76953125 C1.42805819 28.41792778 1.37071167 27.06636694 1.3125 25.71484375 C1.29832031 25.0496875 1.28414062 24.38453125 1.26953125 23.69921875 C1.02250296 18.6598417 -0.31799445 15.75508269 -3.4375 11.83984375 C-8.93756657 6.87636904 -13.28073541 6.48903963 -20.48828125 6.55859375 C-25.77865853 7.06310655 -28.34934936 9.57033467 -31.6875 13.46484375 C-32.265 14.24859375 -32.8425 15.03234375 -33.4375 15.83984375 C-34.0975 16.49984375 -34.7575 17.15984375 -35.4375 17.83984375 C-35.5625 14.96484375 -35.5625 14.96484375 -35.4375 11.83984375 C-34.7775 11.17984375 -34.1175 10.51984375 -33.4375 9.83984375 C-32.4475 9.83984375 -31.4575 9.83984375 -30.4375 9.83984375 C-30.7675 8.51984375 -31.0975 7.19984375 -31.4375 5.83984375 C-32.55125 6.33484375 -33.665 6.82984375 -34.8125 7.33984375 C-38.4375 8.83984375 -38.4375 8.83984375 -40.4375 8.83984375 C-40.4375 9.49984375 -40.4375 10.15984375 -40.4375 10.83984375 C-41.4275 11.16984375 -42.4175 11.49984375 -43.4375 11.83984375 C-41.79846846 5.83006143 -37.49099889 1.98860223 -32.5390625 -1.49609375 C-22.42327535 -6.96094428 -9.65274786 -5.57393728 0 0 Z " fill="#A4E8F3" transform="translate(209.4375,215.16015625)"/>
<path d="M0 0 C2 1 2 1 3.109375 3.67578125 C4.67855708 9.70174812 4.28795833 16.00978199 4.25 22.1875 C4.25773437 23.45787109 4.26546875 24.72824219 4.2734375 26.03710938 C4.27085937 27.25591797 4.26828125 28.47472656 4.265625 29.73046875 C4.26336914 30.83801514 4.26111328 31.94556152 4.25878906 33.08666992 C4.00619607 35.93024749 3.47429722 37.58907751 2 40 C-3.875 39.125 -3.875 39.125 -5 38 C-5.04063832 36.33382885 -5.042721 34.66611905 -5 33 C-5.94875 33.185625 -6.8975 33.37125 -7.875 33.5625 C-11 34 -11 34 -13 33 C-13 33.66 -13 34.32 -13 35 C-12.34 35.33 -11.68 35.66 -11 36 C-12.32 36 -13.64 36 -15 36 C-15 36.66 -15 37.32 -15 38 C-16.98 38 -18.96 38 -21 38 C-21.33 36.68 -21.66 35.36 -22 34 C-20.35 34 -18.7 34 -17 34 C-17 33.34 -17 32.68 -17 32 C-16.34 31.67 -15.68 31.34 -15 31 C-13.98133771 29.34467377 -12.98189187 27.67739862 -12 26 C-11.34 25.34 -10.68 24.68 -10 24 C-9.01 24 -8.02 24 -7 24 C-5.47765445 19.53445305 -4.86408477 15.59838196 -4.625 10.875 C-4.30672249 6.08282165 -3.70699351 3.3482522 0 0 Z " fill="#98E6F4" transform="translate(293,229)"/>
<path d="M0 0 C1.46021611 0.88003008 2.90215377 1.79208167 4.3125 2.75 C5.67375 3.5853125 5.67375 3.5853125 7.0625 4.4375 C17.85811469 15.53299288 17.58064573 29.69904502 17.40625 44.3046875 C17.03343023 54.02906977 17.03343023 54.02906977 14.3125 56.75 C11.1875 56.875 11.1875 56.875 8.3125 56.75 C7.9825 56.09 7.6525 55.43 7.3125 54.75 C10.2825 55.245 10.2825 55.245 13.3125 55.75 C15.06028891 50.0080122 14.49698609 43.87791875 14.5 37.9375 C14.51836914 36.0493457 14.51836914 36.0493457 14.53710938 34.12304688 C14.54684664 27.96585216 14.50243093 22.54076599 12.3125 16.75 C9.69280091 18.93221455 8.42921895 20.10849816 7.80859375 23.51953125 C7.78925781 24.52371094 7.76992188 25.52789062 7.75 26.5625 C7.49833818 31.70269268 6.68604222 35.20931053 4.3125 39.75 C3.6525 39.75 2.9925 39.75 2.3125 39.75 C2.6425 38.821875 2.9725 37.89375 3.3125 36.9375 C5.12707939 30.44183175 5.48913644 23.52779203 2.625 17.3125 C0.10583848 12.95309993 -2.8830764 10.35147453 -7.6875 8.75 C-15.87552745 8.0815896 -20.82779731 9.17686487 -27.6875 13.75 C-27.0625 10.875 -27.0625 10.875 -25.6875 7.75 C-20.89303307 5.52817386 -16.47327067 5.50367989 -11.3125 5.625 C-10.20841797 5.63853516 -10.20841797 5.63853516 -9.08203125 5.65234375 C-7.2837112 5.67569856 -5.48556089 5.71156164 -3.6875 5.75 C-3.6875 6.41 -3.6875 7.07 -3.6875 7.75 C-0.56552522 6.4410428 -0.56552522 6.4410428 1.3125 3.75 C0.24 3.46125 -0.8325 3.1725 -1.9375 2.875 C-5.6875 1.75 -5.6875 1.75 -7.57421875 0.6953125 C-10.24351685 -0.49871733 -12.33504359 -0.51586371 -15.25 -0.5 C-16.20003906 -0.50515625 -17.15007812 -0.5103125 -18.12890625 -0.515625 C-20.92849273 -0.42576075 -20.92849273 -0.42576075 -23.6875 1.75 C-26.375 1.875 -26.375 1.875 -28.6875 1.75 C-21.13787704 -4.237632 -8.56792543 -4.21925029 0 0 Z " fill="#AEE9F3" transform="translate(281.6875,213.25)"/>
<path d="M0 0 C2.98120808 4.47181211 3.14725857 7.38498827 3.1328125 12.640625 C3.13376923 13.40042664 3.13472595 14.16022827 3.13571167 14.9430542 C3.13639286 16.55367109 3.13454283 18.16429071 3.13037109 19.77490234 C3.12505143 22.22630086 3.13030278 24.67751368 3.13671875 27.12890625 C3.13605738 28.6953129 3.134775 30.26171944 3.1328125 31.828125 C3.13483673 32.55646545 3.13686096 33.28480591 3.13894653 34.03521729 C3.1203551 38.12735122 2.79306076 41.98508069 2 46 C0.34385343 46.38218767 -1.32457024 46.71395102 -3 47 C-5.13086442 44.86913558 -4.25960872 40.10833065 -4.31640625 37.15234375 C-4.3475779 35.82270348 -4.3475779 35.82270348 -4.37937927 34.46620178 C-4.444974 31.623383 -4.50380552 28.78046883 -4.5625 25.9375 C-4.6056758 24.01496394 -4.64928978 22.09243766 -4.69335938 20.16992188 C-4.80066543 15.44671332 -4.90190451 10.72340847 -5 6 C-5.66 6 -6.32 6 -7 6 C-7 4.35 -7 2.7 -7 1 C-6.67 2.32 -6.34 3.64 -6 5 C-4.02 3.35 -2.04 1.7 0 0 Z " fill="#96E5F4" transform="translate(393,222)"/>
<path d="M0 0 C0.33 0 0.66 0 1 0 C1.04898437 1.03640625 1.09796875 2.0728125 1.1484375 3.140625 C1.22349597 4.51044208 1.29904247 5.88023248 1.375 7.25 C1.42140625 8.27287109 1.42140625 8.27287109 1.46875 9.31640625 C1.68579493 13.04234415 2.13227682 15.77192725 4 19 C4.165 20.051875 4.33 21.10375 4.5 22.1875 C4.7475 23.5796875 4.7475 23.5796875 5 25 C5.66 25.33 6.32 25.66 7 26 C7.144375 25.4225 7.28875 24.845 7.4375 24.25 C7.76622625 22.93509499 8.12136768 21.62534324 8.5390625 20.3359375 C9.32095859 16.37344712 8.99870157 12.33345021 8.87304688 8.3125 C8.84329538 6.54141098 8.91505698 4.76930104 9 3 C9.66 2.34 10.32 1.68 11 1 C10.94199219 1.99 10.88398438 2.98 10.82421875 4 C10.34747682 13.82169852 10.34747682 13.82169852 14.51953125 22.484375 C18.46379167 26.5222986 22.06930762 28.55400939 27.765625 29.05078125 C31.94492018 28.95579727 35.95612988 28.00268091 40 27 C38 30 38 30 36 30.6875 C30.01095617 31.31135873 23.86196103 31.56318961 18 30 C17.67 31.65 17.34 33.3 17 35 C17.66 35.33 18.32 35.66 19 36 C19 36.66 19 37.32 19 38 C12.23130777 36.47704425 7.28053989 32.33655343 3.4140625 26.6796875 C0.01289344 20.72272666 -1.14068938 16.33298237 -1.125 9.4375 C-1.12757813 8.30183594 -1.13015625 7.16617188 -1.1328125 5.99609375 C-1 3 -1 3 0 0 Z " fill="#B2EBF4" transform="translate(413,231)"/>
<path d="M0 0 C2.88564755 1.48936648 3.61602044 3.04240288 4.9375 6 C5.12876478 8.00828022 5.31901895 10.01676447 5.484375 12.02734375 C5.86409871 14.39364808 5.86409871 14.39364808 8.5625 17 C10.9375 20 10.9375 20 11.04296875 22.1484375 C10.75 24.375 10.75 24.375 9.9375 28 C8.6175 28.33 7.2975 28.66 5.9375 29 C5.69 27.9275 5.4425 26.855 5.1875 25.75 C3.92220426 21.95411278 2.8305687 20.60376183 -0.0625 18 C-0.0625 17.34 -0.0625 16.68 -0.0625 16 C-0.7225 16 -1.3825 16 -2.0625 16 C-2.7225 15.01 -3.3825 14.02 -4.0625 13 C-5.3825 14.32 -6.7025 15.64 -8.0625 17 C-8.0625 13.7855529 -7.86161036 11.07594976 -7.3125 7.9375 C-7.17328125 7.08027344 -7.0340625 6.22304687 -6.890625 5.33984375 C-5.69401501 1.95885609 -3.6823407 0 0 0 Z " fill="#96E6F4" transform="translate(88.0625,188)"/>
<path d="M0 0 C5.05368992 4.50734507 7.62621316 8.44392166 8.33081055 15.1472168 C8.52501604 19.03578207 8.62584872 22.92017361 8.6875 26.8125 C8.71903571 28.23479923 8.75135262 29.65708135 8.78442383 31.0793457 C8.86319069 34.68802905 8.92136628 38.29668802 8.97070312 41.90588379 C8.99891804 43.92266236 9.0325541 45.93936286 9.06640625 47.95605469 C9.12222728 51.53325215 9.15999448 55.10998282 9.1875 58.6875 C9.20063232 59.76040283 9.21376465 60.83330566 9.22729492 61.9387207 C9.22834229 62.93218506 9.22938965 63.92564941 9.23046875 64.94921875 C9.23457764 65.80862061 9.23868652 66.66802246 9.24291992 67.5534668 C8.96785017 70.32379243 8.14031289 72.47278192 7 75 C3.625 75.125 3.625 75.125 0 75 C-2 73 -2 73 -2.22705078 70.11083984 C-2.21657715 68.90637207 -2.20610352 67.7019043 -2.1953125 66.4609375 C-2.18886719 65.15898437 -2.18242187 63.85703125 -2.17578125 62.515625 C-2.15906929 61.13541405 -2.14213939 59.75520571 -2.125 58.375 C-2.11497006 56.98698548 -2.10584423 55.59896411 -2.09765625 54.2109375 C-2.07401863 50.80711974 -2.04106867 47.40364494 -2 44 C-1.67 44 -1.34 44 -1 44 C-0.97494385 44.84296631 -0.9498877 45.68593262 -0.92407227 46.55444336 C-0.82911845 49.67241674 -0.72987552 52.79021503 -0.62768555 55.90795898 C-0.58428777 57.25914147 -0.5426163 58.61038053 -0.50268555 59.96166992 C-0.44510048 61.90036701 -0.38085702 63.83886276 -0.31640625 65.77734375 C-0.27974854 66.94515381 -0.24309082 68.11296387 -0.20532227 69.31616211 C-0.29923812 71.91779795 -0.29923812 71.91779795 1 73 C2.66617115 73.04063832 4.33388095 73.042721 6 73 C6.0463992 65.39374043 6.08190771 57.78749558 6.10362434 50.18112659 C6.11404876 46.64893904 6.1281833 43.11684852 6.15087891 39.5847168 C6.17682394 35.52131229 6.18648387 31.45800926 6.1953125 27.39453125 C6.21079636 25.49741142 6.21079636 25.49741142 6.22659302 23.56196594 C6.22674408 22.38111923 6.22689514 21.20027252 6.22705078 19.98364258 C6.231492 18.94661697 6.23593323 17.90959137 6.24050903 16.84114075 C5.98905329 13.87068616 5.24812854 11.69174685 4 9 C1.90821606 9.95821064 1.90821606 9.95821064 0 12 C-0.61600155 14.82140333 -1.01102227 17.33719271 -1.25 20.1875 C-1.32734375 20.93708984 -1.4046875 21.68667969 -1.484375 22.45898438 C-1.67244395 24.30441097 -1.83838576 26.1520687 -2 28 C-2.33 28 -2.66 28 -3 28 C-3.07347656 26.46279297 -3.07347656 26.46279297 -3.1484375 24.89453125 C-3.22351071 23.5338294 -3.29905655 22.17315356 -3.375 20.8125 C-3.42140625 19.80219727 -3.42140625 19.80219727 -3.46875 18.77148438 C-3.70103922 14.80321025 -4.28387476 11.59270121 -6 8 C-5 8 -4 8 -3 8 C-1.0549 5.08235 -0.54723683 3.37462715 0 0 Z " fill="#C7EFF5" transform="translate(214,220)"/>
<path d="M0 0 C0.33 0.66 0.66 1.32 1 2 C0.67 2.66 0.34 3.32 0 4 C0.00741979 7.75812237 0.07697888 11.50444654 0.21484375 15.25976562 C0.30127145 20.05650317 0.06078915 23.04981924 -3 27 C-3.99 26.67 -4.98 26.34 -6 26 C-6.90152677 23.59592862 -7.50090393 21.49548037 -8 19 C-8.22236328 17.91912109 -8.22236328 17.91912109 -8.44921875 16.81640625 C-9.38708373 10.99760958 -8.43059337 7.34730542 -6 2 C-5.34 3.32 -4.68 4.64 -4 6 C-2.68 4.02 -1.36 2.04 0 0 Z " fill="#96E6F3" transform="translate(423,230)"/>
<path d="M0 0 C0.50789062 0.40992188 1.01578125 0.81984375 1.5390625 1.2421875 C7.04167847 5.54947865 11.30186022 8.34366019 18.5 7.875 C22.81449206 7.26589524 25.5581007 5.72150177 29 3 C29.78375 2.4225 30.5675 1.845 31.375 1.25 C31.91125 0.8375 32.4475 0.425 33 0 C32.67 0.61875 32.34 1.2375 32 1.875 C30.85806765 3.91018344 30.85806765 3.91018344 31 6 C33.46326712 7.6446674 33.46326712 7.6446674 36 9 C35 12 35 12 32.3828125 13.640625 C30.77019531 14.43726563 30.77019531 14.43726563 29.125 15.25 C28.05507812 15.79140625 26.98515625 16.3328125 25.8828125 16.890625 C23 18 23 18 20 17 C20.33 16.34 20.66 15.68 21 15 C21.66 14.855625 22.32 14.71125 23 14.5625 C23.99 14.2840625 23.99 14.2840625 25 14 C25.33 13.01 25.66 12.02 26 11 C25.07058594 10.95101563 24.14117187 10.90203125 23.18359375 10.8515625 C7.04914572 9.87575647 7.04914572 9.87575647 3.4765625 6.60546875 C0 2.65832182 0 2.65832182 0 0 Z " fill="#B7ECF3" transform="translate(176,252)"/>
<path d="M0 0 C0.66 0 1.32 0 2 0 C2.33 17.16 2.66 34.32 3 52 C4.98 52 6.96 52 9 52 C8.67 53.32 8.34 54.64 8 56 C5.6568787 55.74438677 3.32156597 55.40729228 1 55 C-0.26372044 52.47255912 -0.12022795 50.73619692 -0.11352539 47.90771484 C-0.11344986 46.84676605 -0.11337433 45.78581726 -0.11329651 44.69271851 C-0.10813522 43.54373077 -0.10297394 42.39474304 -0.09765625 41.2109375 C-0.0962413 40.03737701 -0.09482635 38.86381653 -0.09336853 37.6546936 C-0.08775689 33.89477015 -0.07520238 30.13490555 -0.0625 26.375 C-0.0574865 23.83073002 -0.05292333 21.28645912 -0.04882812 18.7421875 C-0.03778368 12.49477147 -0.02103418 6.24738994 0 0 Z " fill="#B8EDF3" transform="translate(314,214)"/>
<path d="M0 0 C0.66 0 1.32 0 2 0 C1.8445874 0.64565918 1.6891748 1.29131836 1.52905273 1.95654297 C0.84868077 5.8704871 0.69609991 9.73058579 0.53515625 13.6953125 C0.45669147 15.3971498 0.37790586 17.09897233 0.29882812 18.80078125 C0.17887052 21.47137742 0.0617905 24.14201871 -0.04956055 26.81298828 C-0.15900109 29.39920361 -0.2798654 31.98468641 -0.40234375 34.5703125 C-0.43263168 35.37034698 -0.46291962 36.17038147 -0.49412537 36.99465942 C-0.68114442 40.79201184 -0.84723736 42.77085604 -3 46 C-6.125 46.1875 -6.125 46.1875 -9 46 C-9.33 45.34 -9.66 44.68 -10 44 C-7.69 44 -5.38 44 -3 44 C-2.970271 42.1605481 -2.970271 42.1605481 -2.93994141 40.28393555 C-2.86392381 35.73831492 -2.77520053 31.19301601 -2.68261719 26.64770508 C-2.64431153 24.67967069 -2.60946145 22.7115659 -2.578125 20.7434082 C-2.53250889 17.91592228 -2.47450902 15.08892166 -2.4140625 12.26171875 C-2.39673569 10.93970711 -2.39673569 10.93970711 -2.37905884 9.59098816 C-2.35918915 8.77036392 -2.33931946 7.94973969 -2.31884766 7.10424805 C-2.30552399 6.38254929 -2.29220032 5.66085052 -2.2784729 4.9172821 C-2 3 -2 3 0 0 Z " fill="#CBF0F5" transform="translate(362,224)"/>
<path d="M0 0 C2.5625 2.25 2.5625 2.25 5 5 C5.0625 7.125 5.0625 7.125 4 9 C3.34386719 9.36480469 2.68773437 9.72960937 2.01171875 10.10546875 C-1.00745007 12.94876366 -0.92020952 16.25406144 -1.25 20.1875 C-1.32734375 20.93708984 -1.4046875 21.68667969 -1.484375 22.45898438 C-1.67244395 24.30441097 -1.83838576 26.1520687 -2 28 C-2.33 28 -2.66 28 -3 28 C-3.07347656 26.46279297 -3.07347656 26.46279297 -3.1484375 24.89453125 C-3.22351071 23.5338294 -3.29905655 22.17315356 -3.375 20.8125 C-3.42140625 19.80219727 -3.42140625 19.80219727 -3.46875 18.77148438 C-3.70103922 14.80321025 -4.28387476 11.59270121 -6 8 C-5 8 -4 8 -3 8 C-1.0549 5.08235 -0.54723683 3.37462715 0 0 Z " fill="#B2ECF5" transform="translate(214,220)"/>
<path d="M0 0 C2.75 -0.375 2.75 -0.375 6 0 C10.42328627 4.8254032 13.10824005 11.79779159 15 18 C14.63671875 20.3671875 14.63671875 20.3671875 14 22 C9.63198823 17.63198823 8.31072257 14.37670758 7.45703125 8.26953125 C7.09539932 5.73194631 7.09539932 5.73194631 5 3 C2.61435923 3.57584432 0.33317216 4.22227595 -2 5 C-1.34 3.35 -0.68 1.7 0 0 Z " fill="#9CE5EE" transform="translate(84,186)"/>
<path d="M0 0 C0.33 0 0.66 0 1 0 C1.2137731 7.68395543 1.01670288 14.56340812 -1 22 C-3.31 22.33 -5.62 22.66 -8 23 C-8.61875 22.030625 -9.2375 21.06125 -9.875 20.0625 C-11.65678846 16.97164638 -11.65678846 16.97164638 -14 16 C-12.68 15.34 -11.36 14.68 -10 14 C-9.34 15.98 -8.68 17.96 -8 20 C-6.35 20 -4.7 20 -3 20 C-3.061875 18.6696875 -3.061875 18.6696875 -3.125 17.3125 C-3 14 -3 14 -2.0625 11.6875 C-0.55750644 7.8807516 -0.33582624 4.05642754 0 0 Z " fill="#C4EFF5" transform="translate(472,247)"/>
<path d="M0 0 C0.66 0 1.32 0 2 0 C5.38936328 11.3643357 5.11258107 26.38080409 3 38 C1 40 1 40 -2.125 40.125 C-3.07375 40.08375 -4.0225 40.0425 -5 40 C-5.33 39.34 -5.66 38.68 -6 38 C-4.02 38.33 -2.04 38.66 0 39 C1.05904576 35.53627885 1.12913474 32.34176873 1.1328125 28.73046875 C1.13410156 27.51166016 1.13539063 26.29285156 1.13671875 25.03710938 C1.13285156 23.76673828 1.12898438 22.49636719 1.125 21.1875 C1.12886719 19.92873047 1.13273437 18.66996094 1.13671875 17.37304688 C1.13478516 15.5390332 1.13478516 15.5390332 1.1328125 13.66796875 C1.13112061 12.00157349 1.13112061 12.00157349 1.12939453 10.30151367 C0.99259523 6.81106669 0.54979546 3.44755059 0 0 Z " fill="#C8EFF5" transform="translate(295,230)"/>
<path d="M0 0 C5.78408559 -0.0494009 11.56804864 -0.08572 17.35229492 -0.10986328 C19.32041564 -0.11992707 21.28852138 -0.13357934 23.2565918 -0.15087891 C26.08385918 -0.17511059 28.91092905 -0.18647923 31.73828125 -0.1953125 C32.61962234 -0.20563507 33.50096344 -0.21595764 34.40901184 -0.22659302 C35.22963608 -0.22674408 36.05026031 -0.22689514 36.89575195 -0.22705078 C37.61745071 -0.231492 38.33914948 -0.23593323 39.0827179 -0.24050903 C41 0 41 0 44 2 C45.76732122 5.44162553 46.21977786 8.1538875 46 12 C43.99006295 9.99006295 43.10059081 8.40788768 41.875 5.875 C41.52179688 5.15054687 41.16859375 4.42609375 40.8046875 3.6796875 C40.40636719 2.84824219 40.40636719 2.84824219 40 2 C34.64320272 1.90117311 29.28693515 1.82855218 23.92944336 1.78027344 C22.1067582 1.76014941 20.28413766 1.73284704 18.46166992 1.69824219 C15.84277412 1.64975732 13.22473121 1.62703991 10.60546875 1.609375 C9.78974899 1.58872986 8.97402924 1.56808472 8.1335907 1.54681396 C3.56277359 1.4828801 3.56277359 1.4828801 -0.0378418 4.02441406 C-0.355354 4.67635742 -0.67286621 5.32830078 -1 6 C-0.67 4.02 -0.34 2.04 0 0 Z " fill="#CDF6F9" transform="translate(66,251)"/>
<path d="M0 0 C2.52789145 2.52789145 3.3256966 4.92195971 4.625 8.25 C5.07101563 9.36890625 5.51703125 10.4878125 5.9765625 11.640625 C7.0028094 15.0092217 7.35343153 17.50607684 7 21 C5 23 5 23 2.625 23.4375 C0 23 0 23 -2.3125 20.625 C-4 18 -4 18 -4 16 C-1 17 -1 17 0 19 C2.52733235 19.65555119 2.52733235 19.65555119 5 20 C4.7834375 19.24074219 4.566875 18.48148437 4.34375 17.69921875 C4.0653125 16.70535156 3.786875 15.71148437 3.5 14.6875 C3.2215625 13.70136719 2.943125 12.71523438 2.65625 11.69921875 C2 9 2 9 2 6 C1.34 6 0.68 6 0 6 C0 4.02 0 2.04 0 0 Z " fill="#BDECF2" transform="translate(116,247)"/>
<path d="M0 0 C0 0.33 0 0.66 0 1 C-0.99580078 1.11214844 -0.99580078 1.11214844 -2.01171875 1.2265625 C-3.33623047 1.42378906 -3.33623047 1.42378906 -4.6875 1.625 C-5.99267578 1.79902344 -5.99267578 1.79902344 -7.32421875 1.9765625 C-10.2152253 3.08231975 -12.1277128 4.29989091 -14.02026367 6.77978516 C-16.35170641 12.06314929 -15.7899718 18.19243295 -15.8125 23.875 C-15.83566531 25.24483111 -15.86103488 26.61462681 -15.88867188 27.984375 C-15.94745415 31.3232084 -15.9838023 34.6607331 -16 38 C-16.33 38 -16.66 38 -17 38 C-17.024727 33.64005933 -17.04287281 29.28015586 -17.05493164 24.92016602 C-17.05995903 23.43708587 -17.06678185 21.95401067 -17.07543945 20.47094727 C-17.08757482 18.33869199 -17.09324425 16.20650227 -17.09765625 14.07421875 C-17.10289307 12.79119873 -17.10812988 11.50817871 -17.11352539 10.1862793 C-17 7 -17 7 -16 4 C-10.92237477 0.21394029 -6.16724771 -0.44051769 0 0 Z " fill="#D8F6F9" transform="translate(341,220)"/>
<path d="M0 0 C0.66 0.33 1.32 0.66 2 1 C1.74438677 3.3431213 1.40729228 5.67843403 1 8 C-2.46696038 9.73348019 -6.20948937 9.47699379 -10 9 C-15.46341463 6.07317073 -15.46341463 6.07317073 -17 3 C-14.03 3.495 -14.03 3.495 -11 4 C-11 4.66 -11 5.32 -11 6 C-9.39125 5.690625 -9.39125 5.690625 -7.75 5.375 C-4.12380904 5.0123809 -2.91708924 5.01637931 0 7 C0 4.69 0 2.38 0 0 Z " fill="#BDEDF4" transform="translate(153,261)"/>
<path d="M0 0 C0.99849204 3.10641969 0.89339229 4.89439822 0 8 C-0.35798118 15.51760472 0.71904042 22.60017101 2 30 C-2.45206757 24.47455723 -3.40260991 18.26459893 -3.26953125 11.3203125 C-2.80760524 7.34373207 -1.4714063 3.70479086 0 0 Z " fill="#C8EEF3" transform="translate(241,227)"/>
<path d="M0 0 C5.33899197 4.91749261 7.17490328 8.8491618 8 16 C8.0738257 19.002245 8.0600472 21.99764007 8 25 C7.67 25 7.34 25 7 25 C7 23.02 7 21.04 7 19 C6.34 19 5.68 19 5 19 C5 16.03 5 13.06 5 10 C3.68 10.33 2.36 10.66 1 11 C1.03255208 9.01432292 1.06510417 7.02864583 1.09765625 5.04296875 C1.08263217 2.79694539 1.08263217 2.79694539 0 0 Z " fill="#B8EDF3" transform="translate(464,221)"/>
<path d="M0 0 C0.1875 2.3125 0.1875 2.3125 0 5 C-1.51171875 6.66796875 -1.51171875 6.66796875 -3 8 C-4.33627775 6.85760183 -5.66895388 5.71098945 -7 4.5625 C-7.7425 3.92441406 -8.485 3.28632813 -9.25 2.62890625 C-9.8275 2.09136719 -10.405 1.55382812 -11 1 C-11 0.67 -11 0.34 -11 0 C-7.01803543 -1.05404945 -4.01804691 -0.84098656 0 0 Z " fill="#96E6F6" transform="translate(214,220)"/>
<path d="M0 0 C3.62153282 1.64406093 7.17667662 3.35335325 9 7 C6.525 6.505 6.525 6.505 4 6 C4 5.34 4 4.68 4 4 C-2.32448699 2.93034128 -8.64416673 1.86670454 -15 1 C-10.10792519 -1.9375309 -5.40888703 -1.1771407 0 0 Z " fill="#BAECF1" transform="translate(347,211)"/>
<path d="M0 0 C-0.33 1.98 -0.66 3.96 -1 6 C11.87 6.495 11.87 6.495 25 7 C25 7.33 25 7.66 25 8 C16.09 8 7.18 8 -2 8 C-2.33 6.68 -2.66 5.36 -3 4 C-3.66 3.67 -4.32 3.34 -5 3 C-2.25 0 -2.25 0 0 0 Z " fill="#B4E9F2" transform="translate(74,235)"/>
<path d="M0 0 C2.875 -0.125 2.875 -0.125 6 0 C8 2 8 2 8.22705078 4.79736328 C8.21134033 6.54122314 8.21134033 6.54122314 8.1953125 8.3203125 C8.18564453 10.20556641 8.18564453 10.20556641 8.17578125 12.12890625 C8.15902344 13.44761719 8.14226562 14.76632813 8.125 16.125 C8.11496983 17.46483721 8.10584404 18.80468152 8.09765625 20.14453125 C8.07402075 23.42986573 8.04107234 26.71484465 8 30 C7.67 30 7.34 30 7 30 C6.98018066 29.2886792 6.96036133 28.5773584 6.93994141 27.84448242 C6.84475133 24.62511184 6.73504771 21.4063955 6.625 18.1875 C6.5940625 17.06794922 6.563125 15.94839844 6.53125 14.79492188 C6.49257812 13.72177734 6.45390625 12.64863281 6.4140625 11.54296875 C6.3826416 10.55321045 6.3512207 9.56345215 6.31884766 8.54370117 C6.16226567 5.75924906 6.16226567 5.75924906 4 3 C1.43717258 2.27034634 1.43717258 2.27034634 -1 2 C-0.67 1.34 -0.34 0.68 0 0 Z " fill="#BEEDF4" transform="translate(134,186)"/>
<path d="M0 0 C2.64 0 5.28 0 8 0 C8 2.31 8 4.62 8 7 C6.02 7 4.04 7 2 7 C2.99 5.68 3.98 4.36 5 3 C3.02 3 1.04 3 -1 3 C-0.67 2.01 -0.34 1.02 0 0 Z " fill="#96E6F1" transform="translate(145,261)"/>
<path d="M0 0 C1.078125 1.8515625 1.078125 1.8515625 2 4 C0.75 6.375 0.75 6.375 -1 9 C-1.309375 10.010625 -1.61875 11.02125 -1.9375 12.0625 C-3.0990655 15.27388697 -4.44641319 16.78689143 -7 19 C-5.17778624 12.38757278 -2.94776396 6.19479329 0 0 Z " fill="#BEEDF3" transform="translate(71,214)"/>
<path d="M0 0 C0.99 0 1.98 0 3 0 C1.47275469 6.39456368 0.18720934 10.79415459 -5 15 C-1.92482916 4.44191344 -1.92482916 4.44191344 0 0 Z " fill="#BAEBF1" transform="translate(59,242)"/>
<path d="M0 0 C4.03131967 3.46670907 4.87545381 7.96297018 6 13 C6.1875 16.625 6.1875 16.625 6 19 C4.04884575 16.07326863 2.70354342 13.2870104 1.3125 10.0625 C0.85488281 9.02222656 0.39726563 7.98195312 -0.07421875 6.91015625 C-1.00643141 3.97978311 -1.11435288 2.80276633 0 0 Z " fill="#BEEDF4" transform="translate(90,206)"/>
<path d="M0 0 C0.99217314 2.97651942 1.04648208 4.72783317 0.9375 7.8125 C0.88311836 11.93946196 1.37894094 15.14998474 3 19 C0.7170722 17.34487734 -0.55405312 16.36288881 -2 14 C-2.78247597 8.79615495 -2.95808381 4.43712572 0 0 Z " fill="#BBECF3" transform="translate(173,233)"/>
<path d="M0 0 C2.75 -0.375 2.75 -0.375 6 0 C10 4.84210526 10 4.84210526 10 8 C9.34 8 8.68 8 8 8 C6.375 5.5 6.375 5.5 5 3 C2.61435923 3.57584432 0.33317216 4.22227595 -2 5 C-1.34 3.35 -0.68 1.7 0 0 Z " fill="#C5EEF3" transform="translate(84,186)"/>
<path d="M0 0 C0.66 0.33 1.32 0.66 2 1 C1.525625 1.5775 1.05125 2.155 0.5625 2.75 C-0.9484867 4.92582084 -1.54036151 6.42602448 -2 9 C-3.98 9.33 -5.96 9.66 -8 10 C-6.34908222 5.70761377 -3.26245434 3.1206085 0 0 Z " fill="#B7ECF4" transform="translate(251,215)"/>
<path d="M0 0 C1.67588141 2.51382212 2.94030311 4.82947288 4.1875 7.5625 C4.55230469 8.34753906 4.91710937 9.13257813 5.29296875 9.94140625 C5.52628906 10.62074219 5.75960937 11.30007812 6 12 C5.67 12.66 5.34 13.32 5 14 C3 13 3 13 2 10 C1.34 9.67 0.68 9.34 0 9 C0 6.03 0 3.06 0 0 Z " fill="#BBEEF3" transform="translate(103,215)"/>
<path d="M0 0 C1.98 0 3.96 0 6 0 C5.2575 0.53625 4.515 1.0725 3.75 1.625 C0.82649095 4.14984872 -0.93701194 6.75816162 -3 10 C-3.33 10 -3.66 10 -4 10 C-4 8.02 -4 6.04 -4 4 C-3.01 4 -2.02 4 -1 4 C-0.67 2.68 -0.34 1.36 0 0 Z " fill="#BEEEF3" transform="translate(428,222)"/>
<path d="M0 0 C0.74958984 0.00451172 1.49917969 0.00902344 2.27148438 0.01367188 C4.11852383 0.02543646 5.96552213 0.04337135 7.8125 0.0625 C7.8125 0.3925 7.8125 0.7225 7.8125 1.0625 C6.76449219 1.11148438 5.71648437 1.16046875 4.63671875 1.2109375 C3.25778646 1.28598143 1.8788815 1.36152857 0.5 1.4375 C-0.53543945 1.48390625 -0.53543945 1.48390625 -1.59179688 1.53125 C-5.25740789 1.74374919 -7.06650792 1.98183861 -10.1875 4.0625 C-12.875 4.1875 -12.875 4.1875 -15.1875 4.0625 C-10.20080336 0.1075337 -6.19932901 -0.07038539 0 0 Z " fill="#C7EEF8" transform="translate(268.1875,210.9375)"/>
<path d="M0 0 C3.96 0 7.92 0 12 0 C12.33 0.99 12.66 1.98 13 3 C8.71 3 4.42 3 0 3 C0 2.01 0 1.02 0 0 Z " fill="#C0ECF6" transform="translate(368,219)"/>
<path d="M0 0 C1.98 1.65 3.96 3.3 6 5 C3 5 3 5 0 4 C-2.05893621 3.77674186 -4.12233653 3.59294241 -6.1875 3.4375 C-7.81751953 3.31181641 -7.81751953 3.31181641 -9.48046875 3.18359375 C-10.31191406 3.12300781 -11.14335937 3.06242188 -12 3 C-12 2.67 -12 2.34 -12 2 C-10.95199219 1.90912109 -10.95199219 1.90912109 -9.8828125 1.81640625 C-8.97273437 1.73261719 -8.06265625 1.64882812 -7.125 1.5625 C-6.22007812 1.48128906 -5.31515625 1.40007812 -4.3828125 1.31640625 C-1.98889139 1.13010715 -1.98889139 1.13010715 0 0 Z " fill="#C6F2F6" transform="translate(198,218)"/>
<path d="M0 0 C0.66 0.66 1.32 1.32 2 2 C5.08347826 2.16681109 5.08347826 2.16681109 8 2 C7.67 3.32 7.34 4.64 7 6 C4.69 5.67 2.38 5.34 0 5 C0 3.35 0 1.7 0 0 Z " fill="#B6E6EC" transform="translate(315,264)"/>
<path d="M0 0 C-0.33 0.99 -0.66 1.98 -1 3 C-1.66 3 -2.32 3 -3 3 C-3 3.66 -3 4.32 -3 5 C-3.66 5 -4.32 5 -5 5 C-5 4.34 -5 3.68 -5 3 C-8.96 3 -12.92 3 -17 3 C-17 2.67 -17 2.34 -17 2 C-16.08476562 1.93941406 -15.16953125 1.87882812 -14.2265625 1.81640625 C-12.44378906 1.69072266 -12.44378906 1.69072266 -10.625 1.5625 C-9.44164062 1.48128906 -8.25828125 1.40007812 -7.0390625 1.31640625 C-4.40001916 1.04164724 -2.56464354 0 0 0 Z " fill="#CEF4F8" transform="translate(279,258)"/>
<path d="M0 0 C0.66 0 1.32 0 2 0 C2.04241723 2.33294775 2.04092937 4.66702567 2 7 C1 8 1 8 -2.5625 8.0625 C-3.696875 8.041875 -4.83125 8.02125 -6 8 C-6.33 7.34 -6.66 6.68 -7 6 C-4.69 6 -2.38 6 0 6 C0 4.02 0 2.04 0 0 Z " fill="#C3EFF4" transform="translate(395,262)"/>
<path d="M0 0 C3.12270126 2.51830747 3.94523098 3.7261549 4.75 7.75 C4.8325 8.8225 4.915 9.895 5 11 C1.94259517 8.24833565 0.15249839 5.98135808 -1 2 C-0.67 1.34 -0.34 0.68 0 0 Z " fill="#B7ECF5" transform="translate(166,251)"/>
<path d="M0 0 C0.33 0 0.66 0 1 0 C1.06058594 0.73605469 1.12117187 1.47210938 1.18359375 2.23046875 C1.26738281 3.20628906 1.35117188 4.18210938 1.4375 5.1875 C1.51871094 6.15042969 1.59992188 7.11335937 1.68359375 8.10546875 C1.97666151 10.78649602 2.42703754 13.3662986 3 16 C1.68 15.34 0.36 14.68 -1 14 C-0.67 9.38 -0.34 4.76 0 0 Z " fill="#BAE9F3" transform="translate(248,235)"/>
<path d="M0 0 C-0.33 1.98 -0.66 3.96 -1 6 C-0.01 6.33 0.98 6.66 2 7 C0.35 7 -1.3 7 -3 7 C-3 6.01 -3 5.02 -3 4 C-3.66 3.67 -4.32 3.34 -5 3 C-2.25 0 -2.25 0 0 0 Z " fill="#C8EDF8" transform="translate(74,235)"/>
<path d="M0 0 C0.99 0 1.98 0 3 0 C1.62845496 2.95409701 0.01136276 5.44008376 -2 8 C-2.125 5.125 -2.125 5.125 -2 2 C-1.34 1.34 -0.68 0.68 0 0 Z " fill="#C6EDF7" transform="translate(176,225)"/>
<path d="M0 0 C2.96052484 3.36423277 3.92289822 6.69159287 5 11 C1.87729874 8.48169253 1.05476902 7.2738451 0.25 3.25 C0.1675 2.1775 0.085 1.105 0 0 Z " fill="#C5EFF3" transform="translate(94,195)"/>
<path d="M0 0 C3.33333333 1.66666667 6.66666667 3.33333333 10 5 C6.71303767 5.79953138 5.28976808 6.09658936 2 5 C0.8125 2.4375 0.8125 2.4375 0 0 Z " fill="#CAF0F7" transform="translate(143,256)"/>
<path d="M0 0 C1.65 0 3.3 0 5 0 C5 2.64 5 5.28 5 8 C3.24901874 5.37352812 1.61268692 2.71224618 0 0 Z " fill="#C1ECF2" transform="translate(345,222)"/>
<path d="M0 0 C0.66 0 1.32 0 2 0 C3.35439668 2.70879335 3.06501451 5.00933268 3 8 C2.34 8 1.68 8 1 8 C0.67 5.36 0.34 2.72 0 0 Z " fill="#ABE9EE" transform="translate(100,211)"/>
<path d="M0 0 C0.33 0 0.66 0 1 0 C1 3.3 1 6.6 1 10 C-0.98 10.99 -0.98 10.99 -3 12 C-2.67 10.68 -2.34 9.36 -2 8 C-1.34 8 -0.68 8 0 8 C0 5.36 0 2.72 0 0 Z " fill="#B4E9EF" transform="translate(212,240)"/>
<path d="M0 0 C2.31 0 4.62 0 7 0 C2.5 3 2.5 3 -2 6 C-1.34 4.02 -0.68 2.04 0 0 Z " fill="#D2F3F7" transform="translate(256,221)"/>
<path d="M0 0 C2.3431213 0.25561323 4.67843403 0.59270772 7 1 C7.33 1.66 7.66 2.32 8 3 C5.03 3 2.06 3 -1 3 C-0.67 2.01 -0.34 1.02 0 0 Z " fill="#CAF0F4" transform="translate(316,211)"/>
</svg>
