<?xml version="1.0" standalone="no"?>
<!DOCTYPE svg PUBLIC "-//W3C//DTD SVG 20010904//EN"
 "http://www.w3.org/TR/2001/REC-SVG-20010904/DTD/svg10.dtd">
<svg version="1.0" xmlns="http://www.w3.org/2000/svg"
 width="948.000000pt" height="351.000000pt" viewBox="0 0 948.000000 351.000000"
 preserveAspectRatio="xMidYMid meet">

<g transform="translate(0.000000,351.000000) scale(0.100000,-0.100000)"
fill="#000000" stroke="none">
<path d="M1602 2952 c-16 -11 -126 -258 -321 -722 -251 -595 -313 -754 -306
-783 11 -43 47 -69 91 -65 53 4 87 52 154 216 l53 132 379 -2 380 -3 59 -139
c67 -156 90 -193 125 -202 54 -14 114 24 114 73 0 39 -231 610 -478 1179 -119
275 -136 310 -157 318 -23 8 -78 7 -93 -2z m229 -732 c66 -162 117 -300 115
-307 -4 -10 -69 -13 -295 -13 -159 0 -292 4 -295 9 -3 5 26 87 65 182 39 96
81 199 94 229 43 107 127 305 133 315 8 12 41 -64 183 -415z"/>
<path d="M2539 2941 l-24 -19 -3 -651 c-2 -649 -2 -651 19 -693 64 -126 142
-187 253 -195 93 -8 146 25 146 91 0 53 -27 77 -105 90 -63 11 -91 25 -105 54
-21 45 -29 266 -30 773 0 501 -3 539 -40 559 -30 16 -86 11 -111 -9z"/>
<path d="M6345 2491 c-45 -12 -97 -35 -143 -65 -23 -14 -44 -26 -47 -26 -3 0
-10 11 -15 24 -21 57 -112 78 -154 37 -21 -21 -21 -27 -24 -501 -2 -308 1
-494 8 -518 16 -60 92 -83 141 -43 23 18 23 21 36 391 l12 373 28 46 c43 69
108 105 200 110 92 4 149 -15 194 -66 59 -68 61 -78 70 -443 5 -184 11 -349
14 -367 3 -18 16 -39 28 -48 44 -30 121 -11 132 33 3 14 10 176 15 361 5 185
14 352 19 372 15 50 77 118 129 140 58 25 163 25 217 0 50 -23 89 -64 111
-116 19 -46 32 -262 34 -560 0 -99 3 -190 6 -201 11 -40 99 -59 139 -30 27 20
33 91 34 403 1 316 -8 403 -50 490 -72 149 -252 235 -427 205 -91 -15 -143
-39 -224 -100 l-66 -50 -44 45 c-23 24 -72 58 -107 75 -54 25 -79 31 -150 34
-47 2 -99 0 -116 -5z"/>
<path d="M8298 2489 c-188 -24 -338 -136 -422 -313 -154 -324 20 -712 355
-791 166 -39 338 5 457 115 24 22 47 38 51 35 5 -2 11 -27 15 -54 9 -66 41
-101 95 -101 51 0 91 43 91 98 0 20 3 78 6 127 7 114 -11 414 -30 482 -27 101
-63 162 -138 237 -134 132 -297 188 -480 165z m232 -195 c88 -41 135 -86 176
-168 30 -62 37 -88 41 -158 15 -231 -96 -384 -306 -420 -170 -29 -325 51 -403
209 -28 57 -30 69 -30 172 0 96 3 117 25 163 73 158 182 227 357 228 70 0 94
-5 140 -26z"/>
<path d="M3491 2474 c-223 -60 -381 -259 -406 -509 -23 -236 135 -485 361
-566 87 -32 244 -32 335 -1 74 26 138 63 197 116 l40 36 7 -27 c4 -16 5 -151
3 -301 l-3 -274 43 -25 c47 -28 72 -26 116 8 l27 22 -3 551 c-4 535 -5 553
-26 616 -58 173 -208 308 -393 354 -80 20 -225 20 -298 0z m309 -180 c62 -29
156 -117 188 -178 25 -48 27 -60 27 -181 0 -116 -2 -135 -23 -177 -106 -214
-377 -283 -569 -145 -54 39 -128 147 -144 210 -19 78 -7 216 25 281 50 103
133 177 226 203 67 19 214 12 270 -13z"/>
<path d="M4931 2474 c-187 -50 -347 -219 -391 -413 -17 -75 -15 -204 4 -280
100 -390 555 -541 848 -282 25 22 48 41 51 41 3 0 9 -20 13 -45 10 -69 41
-109 88 -113 49 -4 82 18 97 67 18 59 6 546 -15 630 -47 185 -209 348 -392
396 -73 19 -231 19 -303 -1z m293 -175 c64 -23 146 -93 181 -153 58 -99 68
-263 24 -381 -28 -76 -96 -147 -177 -187 -61 -30 -73 -33 -167 -33 -90 0 -106
3 -158 28 -74 37 -144 107 -182 183 -28 55 -30 66 -30 174 0 105 2 120 27 170
30 62 84 129 129 160 85 61 247 79 353 39z"/>
</g>
</svg>
